<?xml version="1.0" encoding="UTF-8"?>
<svg xmlns="http://www.w3.org/2000/svg" xmlns:xlink="http://www.w3.org/1999/xlink" width="110pt" height="110pt" viewBox="0 0 110 110" version="1.1">
<g id="surface1">
<path style=" stroke:none;fill-rule:nonzero;fill:rgb(0%,0%,0%);fill-opacity:1;" d="M 49.761719 0.476562 C 49.664062 0.476562 49.5625 0.476562 49.464844 0.476562 C 48.851562 0.484375 48.242188 0.5 47.628906 0.527344 C 48.363281 0.9375 49.09375 1.363281 49.824219 1.804688 C 71.253906 14.746094 90.371094 40.121094 97.183594 64.652344 C 98.695312 59.757812 99.4375 54.65625 99.386719 49.53125 C 99.117188 22.292969 76.949219 0.378906 49.761719 0.476562 Z M 58.914062 24.121094 C 51.976562 24.140625 44.394531 26.726562 37.84375 31.3125 C 24.234375 40.839844 18.6875 56.210938 25.457031 65.652344 L 25.480469 65.6875 C 32.273438 75.109375 48.804688 75.023438 62.410156 65.488281 C 76.011719 55.953125 81.542969 40.582031 74.757812 31.148438 C 71.511719 26.628906 65.8125 24.105469 58.914062 24.121094 Z M 2.625 35.585938 C 1.15625 40.410156 0.433594 45.429688 0.480469 50.472656 L 0.480469 50.566406 C 0.765625 76.847656 21.484375 98.332031 47.691406 99.523438 C 26.441406 85.363281 8.289062 59.613281 2.625 35.585938 Z M 2.625 35.585938 "/>
</g>
</svg>
